<mxfile host="app.diagrams.net" modified="2023-06-16T17:28:32.635Z" agent="Mozilla/5.0 (Macintosh; Intel Mac OS X 10_15_7) AppleWebKit/537.36 (KHTML, like Gecko) Chrome/113.0.0.0 Safari/537.36" version="21.3.8" etag="O5CpLTj7YCvypqlcYpBN" type="github">
  <diagram name="Page-1" id="4entYan4-WArQ0ysUQuu">
    <mxGraphModel>
      <root>
        <mxCell id="0" />
        <mxCell id="1" parent="0" />
      </root>
    </mxGraphModel>
  </diagram>
</mxfile>
